<svg width="18" height="18" viewBox="0 0 18 18" fill="none" xmlns="http://www.w3.org/2000/svg">
<path d="M16.5006 12.69V14.94C16.5006 15.4508 16.0981 15.8716 15.5889 15.8941C15.1956 15.9113 14.8798 15.9225 14.6256 15.9225C7.65062 15.9225 2.07812 10.35 2.07812 3.375C2.07812 3.12075 2.08937 2.805 2.10587 2.41175C2.12904 1.90254 2.54983 1.5 3.06062 1.5H5.31062C5.55812 1.5 5.76888 1.6875 5.79813 1.93275C5.82438 2.1525 5.84838 2.33025 5.87013 2.46825C6.06889 3.72906 6.4756 4.94698 7.07312 6.075L6.10188 7.04625C7.19776 9.32498 8.67564 10.8029 10.9544 11.8988L11.9256 10.9275C13.0536 11.525 14.2715 11.9317 15.5324 12.1305C15.6703 12.1522 15.8481 12.1762 16.0679 12.2025C16.3131 12.2318 16.5006 12.4425 16.5006 12.69Z" stroke="#0C67B5" stroke-width="1.5" stroke-linecap="round" stroke-linejoin="round"/>
</svg>
