<svg width="44" height="44" viewBox="0 0 44 44" fill="none" xmlns="http://www.w3.org/2000/svg">
<rect width="44" height="44" rx="8" fill="#EAF4FB"/>
<path d="M17.1967 24.8033C15.7902 23.3968 15 21.4891 15 19.5C15 17.5109 15.7902 15.6032 17.1967 14.1967C18.6032 12.7902 20.5109 12 22.5 12C24.4891 12 26.3968 12.7902 27.8033 14.1967C29.2098 15.6032 30 17.5109 30 19.5C30 21.4891 29.2098 23.3968 27.8033 24.8033C26.3968 26.2098 24.4891 27 22.5 27C20.5109 27 18.6032 26.2098 17.1967 24.8033Z" stroke="#0C67B5" stroke-width="1.5" stroke-linecap="round" stroke-linejoin="round"/>
<path d="M19.5 20.167C19.5 20.167 20.25 20.167 21 21.5C21 21.5 23.382 18.167 25.5 17.5" stroke="#0C67B5" stroke-width="1.5" stroke-linecap="round" stroke-linejoin="round"/>
<path d="M27.3826 25L28.0526 28.21C28.4826 30.272 28.6986 31.303 28.2556 31.792C27.8136 32.281 27.0456 31.861 25.5096 31.02L23.2356 29.775C22.8726 29.577 22.6916 29.477 22.4996 29.477C22.3076 29.477 22.1266 29.577 21.7636 29.775L19.4896 31.02C17.9536 31.86 17.1856 32.281 16.7436 31.792C16.3016 31.303 16.5166 30.272 16.9466 28.21L17.6166 25" stroke="#0C67B5" stroke-width="1.5" stroke-linejoin="round"/>
</svg>
