<svg width="44" height="44" viewBox="0 0 44 44" fill="none" xmlns="http://www.w3.org/2000/svg">
<rect width="44" height="44" rx="8" fill="#EAF4FB"/>
<path d="M12.9593 19.6427L22.0119 14.4422L31.0646 19.6427C31.2073 19.7173 31.3733 19.7339 31.5279 19.6891C31.6826 19.6442 31.8139 19.5413 31.8945 19.4019C31.9751 19.2625 31.9987 19.0973 31.9604 18.9409C31.9221 18.7845 31.8248 18.649 31.6889 18.5626L22.0119 13L12.3349 18.5626C12.2603 18.6016 12.1944 18.6553 12.1411 18.7205C12.0878 18.7857 12.0482 18.861 12.0247 18.9418C12.0013 19.0227 11.9944 19.1075 12.0046 19.1911C12.0147 19.2747 12.0417 19.3553 12.0838 19.4282C12.1259 19.5011 12.1824 19.5647 12.2498 19.6153C12.3171 19.6658 12.394 19.7021 12.4758 19.7222C12.5576 19.7422 12.6426 19.7455 12.7256 19.7318C12.8087 19.7182 12.8882 19.6878 12.9593 19.6427Z" fill="#0C67B5"/>
<path d="M13.2695 27.4091C13.2695 27.5746 13.3353 27.7334 13.4524 27.8505C13.5695 27.9676 13.7283 28.0334 13.8939 28.0334H30.1262C30.2918 28.0334 30.4506 27.9676 30.5677 27.8505C30.6848 27.7334 30.7505 27.5746 30.7505 27.4091C30.7505 27.2435 30.6848 27.0847 30.5677 26.9676C30.4506 26.8505 30.2918 26.7848 30.1262 26.7848H28.2533V22.1836H27.0046V26.7848H22.6344V22.1836H21.3857V26.7848H17.0155V22.1836H15.7668V26.7848H13.8939C13.7283 26.7848 13.5695 26.8505 13.4524 26.9676C13.3353 27.0847 13.2695 27.2435 13.2695 27.4091Z" fill="#0C67B5"/>
<path d="M13.9082 19.9172H30.1406V21.1659H13.9082V19.9172Z" fill="#0C67B5"/>
<path d="M31.3755 29.2822H12.6458C12.4802 29.2822 12.3214 29.348 12.2043 29.4651C12.0873 29.5822 12.0215 29.741 12.0215 29.9065C12.0215 30.0721 12.0873 30.2309 12.2043 30.348C12.3214 30.4651 12.4802 30.5308 12.6458 30.5308H31.3755C31.541 30.5308 31.6998 30.4651 31.8169 30.348C31.934 30.2309 31.9998 30.0721 31.9998 29.9065C31.9998 29.741 31.934 29.5822 31.8169 29.4651C31.6998 29.348 31.541 29.2822 31.3755 29.2822Z" fill="#0C67B5"/>
<path d="M24.6007 18.4067H26.6048L22.4156 15.9968C22.3397 15.953 22.2535 15.9299 22.1659 15.9299C22.0782 15.9299 21.9921 15.953 21.9161 15.9968L17.7207 18.4067H19.7248L22.1596 17.0082L24.6007 18.4067Z" fill="#0C67B5"/>
</svg>
