<svg width="85" height="81" viewBox="0 0 85 81" fill="none" xmlns="http://www.w3.org/2000/svg">
<g opacity="0.6">
<path d="M74.0788 57.7631C71.9567 61.9315 68.4283 65.5568 63.9356 68.2936L65.9777 75.0305C66.0921 75.4079 66.1165 75.8068 66.0491 76.1953C65.9816 76.5839 65.8241 76.9512 65.5892 77.268C65.3543 77.5847 65.0485 77.8421 64.6963 78.0194C64.3441 78.1968 63.9553 78.2893 63.5609 78.2894H56.1335C55.5869 78.2894 55.055 78.1121 54.6177 77.7841L48.7441 73.3757H38.483L32.6093 77.7841C32.172 78.1121 31.6402 78.2894 31.0935 78.2894H23.6662C23.2718 78.2893 22.883 78.1968 22.5308 78.0194C22.1786 77.8421 21.8728 77.5847 21.6379 77.268C21.403 76.9512 21.2455 76.5839 21.178 76.1953C21.1105 75.8068 21.135 75.4079 21.2493 75.0305L23.2914 68.2936C15.7546 63.6999 10.9209 56.601 10.9209 48.6389C10.9209 34.7863 25.5567 23.5526 43.6156 23.5526C47.2746 23.5526 51.8472 24.8073 55.1314 25.6578L74.0788 19.342L73.7251 34.6178L82.4998 38.2894V53.0263L74.3904 57.2368" stroke="#0C67B5" stroke-width="5" stroke-linecap="round" stroke-linejoin="round"/>
<path d="M59.3426 44.6053C58.7842 44.6053 58.2487 44.3835 57.8539 43.9887C57.4591 43.5939 57.2373 43.0584 57.2373 42.5C57.2373 41.9417 57.4591 41.4062 57.8539 41.0114C58.2487 40.6166 58.7842 40.3948 59.3426 40.3948C59.9009 40.3948 60.4364 40.6166 60.8312 41.0114C61.226 41.4062 61.4478 41.9417 61.4478 42.5C61.4478 43.0584 61.226 43.5939 60.8312 43.9887C60.4364 44.3835 59.9009 44.6053 59.3426 44.6053Z" fill="#0C67B5" stroke="#0C67B5" stroke-width="5" stroke-linecap="round" stroke-linejoin="round"/>
<path d="M2.5 31.9736C2.5 31.9736 2.5 42.0789 10.9211 44.6052" stroke="#0C67B5" stroke-width="5" stroke-linecap="round" stroke-linejoin="round"/>
<path d="M47.9734 22.5126C48.5207 20.9463 48.8155 19.2621 48.8155 17.5105C48.8155 9.22 42.2176 2.5 34.0786 2.5C25.9397 2.5 19.3418 9.22 19.3418 17.5105C19.3418 21.4726 20.8492 25.0811 23.3165 27.7632" stroke="#0C67B5" stroke-width="5" stroke-linejoin="round"/>
</g>
</svg>
