<svg width="85" height="85" viewBox="0 0 85 85" fill="none" xmlns="http://www.w3.org/2000/svg">
<path opacity="0.6" d="M47.5889 3.72112C47.1956 3.33088 46.729 3.02215 46.2161 2.81261C45.7032 2.60308 45.1539 2.49687 44.5998 2.50007H6.70998C4.39449 2.50007 2.5 4.39481 2.5 6.71059V44.6053C2.5 45.7421 2.9631 46.7948 3.7209 47.5948L37.4008 81.2789C38.2428 82.1211 39.2953 82.5 40.3899 82.5C41.4845 82.5 42.537 82.0789 43.379 81.2789L81.2688 43.3842C81.6591 42.9947 81.9687 42.532 82.18 42.0227C82.3913 41.5133 82.5 40.9673 82.5 40.4158C82.5 39.8644 82.3913 39.3184 82.18 38.809C81.9687 38.2996 81.6591 37.8369 81.2688 37.4474L47.5889 3.72112ZM27.7599 36.1843C23.0868 36.1843 19.3399 32.3948 19.3399 27.7632C19.3399 23.1316 23.1289 19.3422 27.7599 19.3422C32.3909 19.3422 36.1799 23.1316 36.1799 27.7632C36.1799 32.3948 32.3909 36.1843 27.7599 36.1843Z" stroke="#0C67B5" stroke-width="5"/>
</svg>
