<svg width="80" height="73" viewBox="0 0 80 73" fill="none" xmlns="http://www.w3.org/2000/svg">
<g opacity="0.6">
<path d="M59.534 17.6801C59.534 16.94 59.24 16.2301 58.7166 15.7068C58.1933 15.1834 57.4834 14.8894 56.7433 14.8894C56.0032 14.8894 55.2933 15.1834 54.77 15.7068C54.2466 16.2301 53.9526 16.94 53.9526 17.6801V22.3313H49.3014C48.5613 22.3313 47.8515 22.6253 47.3281 23.1486C46.8048 23.672 46.5107 24.3818 46.5107 25.122C46.5107 25.8621 46.8048 26.5719 47.3281 27.0953C47.8515 27.6186 48.5613 27.9127 49.3014 27.9127H53.9526V32.5638C53.9526 33.304 54.2466 34.0138 54.77 34.5371C55.2933 35.0605 56.0032 35.3545 56.7433 35.3545C57.4834 35.3545 58.1933 35.0605 58.7166 34.5371C59.24 34.0138 59.534 33.304 59.534 32.5638V27.9127H64.1852C64.9253 27.9127 65.6351 27.6186 66.1585 27.0953C66.6818 26.5719 66.9759 25.8621 66.9759 25.122C66.9759 24.3818 66.6818 23.672 66.1585 23.1486C65.6351 22.6253 64.9253 22.3313 64.1852 22.3313H59.534V17.6801Z" fill="#0C67B5"/>
<path fill-rule="evenodd" clip-rule="evenodd" d="M80 26.3051C80 13.9293 74.4856 4.69392 65.8977 1.33392C57.9535 -1.7805 48.4167 0.548802 40 8.42601C31.5833 0.548802 22.0465 -1.7805 14.1023 1.33392C5.51442 4.69392 0 13.9293 0 26.3014C0 34.186 4.20465 41.9404 9.44 48.6158C14.7312 55.3618 21.3842 61.4009 26.9358 65.9069L27.4344 66.3162C31.8995 69.9442 35.1293 72.5674 40 72.5674C44.8744 72.5674 48.0967 69.9442 52.5656 66.3162L53.0642 65.9069C58.6158 61.4046 65.2688 55.3618 70.56 48.6158C75.7953 41.9404 80 34.186 80 26.3051ZM42.0391 14.2828C49.8977 5.87717 58.0428 4.25113 63.866 6.52834C69.7005 8.81299 74.4186 15.4958 74.4186 26.3051C74.4186 32.2995 71.1442 38.8223 66.1656 45.1702C61.2391 51.4586 54.9433 57.1962 49.5479 61.5758C44.3647 65.7804 42.6902 66.9823 40 66.9823C37.3098 66.9823 35.6353 65.7804 30.4521 61.5721C25.0567 57.1962 18.7609 51.4549 13.8344 45.1739C8.85209 38.8223 5.5814 32.2995 5.5814 26.3051C5.5814 15.4958 10.2995 8.81671 16.134 6.52834C21.9572 4.25113 30.1023 5.87717 37.9609 14.2828C38.222 14.5622 38.5377 14.7849 38.8885 14.9372C39.2393 15.0896 39.6176 15.1681 40 15.1681C40.3824 15.1681 40.7607 15.0896 41.1115 14.9372C41.4623 14.7849 41.778 14.5622 42.0391 14.2828Z" fill="#0C67B5"/>
</g>
</svg>
