<svg width="65" height="85" viewBox="0 0 65 85" fill="none" xmlns="http://www.w3.org/2000/svg">
<g opacity="0.6">
<path d="M11.2868 53.7132C5.66071 48.0871 2.5 40.4565 2.5 32.5C2.5 24.5435 5.66071 16.9129 11.2868 11.2868C16.9129 5.66071 24.5435 2.5 32.5 2.5C40.4565 2.5 48.0871 5.66071 53.7132 11.2868C59.3393 16.9129 62.5 24.5435 62.5 32.5C62.5 40.4565 59.3393 48.0871 53.7132 53.7132C48.0871 59.3393 40.4565 62.5 32.5 62.5C24.5435 62.5 16.9129 59.3393 11.2868 53.7132Z" stroke="#0C67B5" stroke-width="5" stroke-linecap="round" stroke-linejoin="round"/>
<path d="M20.5 35.168C20.5 35.168 23.5 35.168 26.5 40.5C26.5 40.5 36.028 27.168 44.5 24.5" stroke="#0C67B5" stroke-width="5" stroke-linecap="round" stroke-linejoin="round"/>
<path d="M52.0303 54.5L54.7103 67.34C56.4303 75.588 57.2943 79.712 55.5223 81.668C53.7543 83.624 50.6823 81.944 44.5383 78.58L35.4423 73.6C33.9903 72.808 33.2663 72.408 32.4983 72.408C31.7303 72.408 31.0063 72.808 29.5543 73.6L20.4583 78.58C14.3143 81.94 11.2423 83.624 9.47434 81.668C7.70634 79.712 8.56634 75.588 10.2863 67.34L12.9663 54.5" stroke="#0C67B5" stroke-width="5" stroke-linejoin="round"/>
</g>
</svg>
