<svg width="85" height="75" viewBox="0 0 85 75" fill="none" xmlns="http://www.w3.org/2000/svg">
<g opacity="0.6">
<path d="M66.5 34.5V13.1667H18.5V34.5M34.5 2.5H50.5V13.1667H34.5V2.5Z" stroke="#0C67B5" stroke-width="5" stroke-linejoin="round"/>
<path d="M15.833 71.8334L7.83301 39.8334L42.4997 29.1667L77.1663 39.8334L69.1663 71.8334" stroke="#0C67B5" stroke-width="5" stroke-linecap="round" stroke-linejoin="round"/>
<path d="M2.5 66.4999L4.71867 68.8679C5.7163 69.9319 6.92157 70.7801 8.25996 71.3599C9.59835 71.9397 11.0414 72.2388 12.5 72.2388C13.9586 72.2388 15.4017 71.9397 16.74 71.3599C18.0784 70.7801 19.2837 69.9319 20.2813 68.8679L22.5 66.4999L24.7187 68.8679C25.7163 69.9319 26.9216 70.7801 28.26 71.3599C29.5983 71.9397 31.0414 72.2388 32.5 72.2388C33.9586 72.2388 35.4017 71.9397 36.74 71.3599C38.0784 70.7801 39.2837 69.9319 40.2813 68.8679L42.5 66.4999L44.7187 68.8679C45.7163 69.9319 46.9216 70.7801 48.26 71.3599C49.5983 71.9397 51.0414 72.2388 52.5 72.2388C53.9586 72.2388 55.4017 71.9397 56.74 71.3599C58.0784 70.7801 59.2837 69.9319 60.2813 68.8679L62.5 66.4999L64.7187 68.8679C65.7163 69.9319 66.9216 70.7801 68.26 71.3599C69.5984 71.9397 71.0414 72.2388 72.5 72.2388C73.9586 72.2388 75.4017 71.9397 76.74 71.3599C78.0784 70.7801 79.2837 69.9319 80.2813 68.8679L82.5 66.4999M26.5 45.1666L42.5 39.8333L58.5 45.1666" stroke="#0C67B5" stroke-width="5" stroke-linecap="round" stroke-linejoin="round"/>
</g>
</svg>
