<svg width="85" height="85" viewBox="0 0 85 85" fill="none" xmlns="http://www.w3.org/2000/svg">
<g opacity="0.6">
<path d="M51.2394 61.8185L43.0634 53.6425C42.6254 53.2183 42.277 52.7103 42.0392 52.1488C41.8013 51.5873 41.6787 50.9837 41.6787 50.3739C41.6787 49.7641 41.8013 49.1605 42.0392 48.599C42.277 48.0375 42.6254 47.5296 43.0634 47.1053L55.1496 37.543C56.0435 36.7302 57.2083 36.2798 58.4165 36.2798C59.6246 36.2798 60.7894 36.7302 61.6833 37.543L68.7928 44.6525C70.8254 46.6835 72.3566 49.1604 73.2647 51.8865L75.1452 57.5421L82.5 64.8934" stroke="#0C67B5" stroke-width="5" stroke-linecap="round" stroke-linejoin="round"/>
<path d="M45.6904 56.2342L44.1476 57.7734C43.4829 58.4378 42.9565 59.2274 42.5989 60.0965C42.2412 60.9657 42.0595 61.8971 42.0641 62.8369C42.0687 63.7767 42.2597 64.7063 42.6258 65.5719C42.992 66.4374 43.5262 67.2218 44.1974 67.8796L47.3114 70.9296L57.7944 74.8754L65.1456 82.2267M33.7428 22.9225L41.9188 31.0985C42.3569 31.5227 42.7052 32.0307 42.9431 32.5922C43.1809 33.1537 43.3035 33.7573 43.3035 34.3671C43.3035 34.9769 43.1809 35.5805 42.9431 36.142C42.7052 36.7035 42.3569 37.2114 41.9188 37.6357L29.8326 47.198C28.9387 48.0108 27.7739 48.4612 26.5658 48.4612C25.3576 48.4612 24.1928 48.0108 23.2989 47.198L16.1894 40.0885C14.1642 38.0577 12.6392 35.5835 11.7353 32.8616L9.85481 27.206L2.5 19.8547" stroke="#0C67B5" stroke-width="5" stroke-linecap="round" stroke-linejoin="round"/>
<path d="M39.3095 28.5067L40.8523 26.9675C41.517 26.3031 42.0434 25.5135 42.4011 24.6443C42.7587 23.7752 42.9405 22.8438 42.9358 21.904C42.9312 20.9642 42.7403 20.0346 42.3741 19.169C42.0079 18.3034 41.4738 17.5191 40.8025 16.8613L37.6886 13.8113L27.2056 9.85126L19.8543 2.5M65.597 15.8304L70.9292 10.4982M54.9327 10.4982V3.38869M70.9292 26.4947H78.0387M17.6077 63.8197L12.2755 69.1519M28.272 69.1519V76.2614M12.2755 53.1554H5.16602" stroke="#0C67B5" stroke-width="5" stroke-linecap="round" stroke-linejoin="round"/>
</g>
</svg>
