<svg width="16" height="15" viewBox="0 0 16 15" fill="none" xmlns="http://www.w3.org/2000/svg">
<path d="M15.1111 6.00005H13.3333C13.0976 6.00005 12.8715 6.09487 12.7048 6.26365C12.5381 6.43243 12.4444 6.66135 12.4444 6.90005C12.4444 7.13874 12.5381 7.36766 12.7048 7.53644C12.8715 7.70522 13.0976 7.80004 13.3333 7.80004H14.1593C13.965 9.14525 13.3471 10.3911 12.3976 11.3523C11.4481 12.3136 10.2175 12.939 8.88889 13.1355V5.24556C9.48197 5.03325 9.98183 4.6155 10.3001 4.06613C10.6184 3.51676 10.7346 2.87115 10.6283 2.24341C10.5219 1.61567 10.1998 1.04621 9.71881 0.635686C9.23786 0.225161 8.62906 0 8 0C7.37094 0 6.76214 0.225161 6.28119 0.635686C5.80024 1.04621 5.47811 1.61567 5.37174 2.24341C5.26536 2.87115 5.38159 3.51676 5.69988 4.06613C6.01817 4.6155 6.51803 5.03325 7.11111 5.24556V13.1355C5.78247 12.939 4.55193 12.3136 3.6024 11.3523C2.65287 10.3911 2.03504 9.14525 1.84074 7.80004H2.66667C2.90241 7.80004 3.12851 7.70522 3.29521 7.53644C3.46191 7.36766 3.55556 7.13874 3.55556 6.90005C3.55556 6.66135 3.46191 6.43243 3.29521 6.26365C3.12851 6.09487 2.90241 6.00005 2.66667 6.00005H0.888889C0.653141 6.00005 0.427049 6.09487 0.26035 6.26365C0.0936506 6.43243 0 6.66135 0 6.90005C0 9.04829 0.842855 11.1085 2.34315 12.6276C3.84344 14.1466 5.87827 15 8 15C10.1217 15 12.1566 14.1466 13.6569 12.6276C15.1571 11.1085 16 9.04829 16 6.90005C16 6.66135 15.9063 6.43243 15.7396 6.26365C15.573 6.09487 15.3469 6.00005 15.1111 6.00005ZM8 1.80007C8.17581 1.80007 8.34766 1.85286 8.49384 1.95175C8.64002 2.05064 8.75395 2.1912 8.82123 2.35566C8.8885 2.52011 8.90611 2.70107 8.87181 2.87565C8.83751 3.05023 8.75285 3.2106 8.62854 3.33646C8.50423 3.46233 8.34584 3.54804 8.17341 3.58277C8.00099 3.6175 7.82226 3.59967 7.65984 3.53156C7.49741 3.46344 7.35859 3.34808 7.26092 3.20008C7.16324 3.05208 7.11111 2.87807 7.11111 2.70007C7.11111 2.46138 7.20476 2.23246 7.37146 2.06368C7.53816 1.89489 7.76425 1.80007 8 1.80007Z" fill="#0C67B5"/>
</svg>
