<svg width="18" height="18" viewBox="0 0 18 18" fill="none" xmlns="http://www.w3.org/2000/svg">
<path d="M15.15 13.366L15.6807 10.3953C15.7556 9.97655 15.6778 9.54483 15.4615 9.17851C15.2453 8.8122 14.9048 8.53557 14.502 8.39886L14.35 8.34731L9.32067 6.64065C8.95056 6.5152 8.54944 6.5152 8.17933 6.64065L3.15 8.34731L2.998 8.39886C2.59517 8.53557 2.25472 8.8122 2.03846 9.17851C1.82219 9.54483 1.74444 9.97655 1.81933 10.3953L2.35 13.3668M3.15 8.34731V4.96954C3.15 4.49805 3.3373 4.04586 3.6707 3.71247C4.0041 3.37907 4.45628 3.19177 4.92778 3.19177H7.15M14.35 8.34731V4.96954C14.35 4.49805 14.1627 4.04586 13.8293 3.71247C13.4959 3.37907 13.0437 3.19177 12.5722 3.19177H10.35M7.15 3.19177H10.35M7.15 3.19177V2.34999C7.15 1.92565 7.31857 1.51868 7.61863 1.21863C7.91869 0.91857 8.32565 0.75 8.75 0.75C9.17435 0.75 9.58131 0.91857 9.88137 1.21863C10.1814 1.51868 10.35 1.92565 10.35 2.34999V3.19177M0.75 16.2148C1.32511 16.7997 2.72511 16.9651 4.06111 16.4077C4.97844 16.0255 6.13756 16.0157 7.07533 16.3446C8.161 16.7153 9.339 16.7153 10.4247 16.3446C11.3624 16.0157 12.5216 16.0246 13.438 16.4068C14.7749 16.9651 16.1758 16.7997 16.75 16.2148" stroke="#0C67B5" stroke-width="1.5" stroke-linecap="round" stroke-linejoin="round"/>
</svg>
