<svg width="18" height="18" viewBox="0 0 18 18" fill="none" xmlns="http://www.w3.org/2000/svg">
<path d="M13.1499 3.1496C13.4682 3.1496 13.7734 3.27603 13.9985 3.50107C14.2235 3.72612 14.3499 4.03134 14.3499 4.3496C14.3499 4.66787 14.2235 4.97309 13.9985 5.19814C13.7734 5.42318 13.4682 5.54961 13.1499 5.54961C12.8317 5.54961 12.5264 5.42318 12.3014 5.19814C12.0764 4.97309 11.9499 4.66787 11.9499 4.3496C11.9499 4.03134 12.0764 3.72612 12.3014 3.50107C12.5264 3.27603 12.8317 3.1496 13.1499 3.1496Z" stroke="#0C67B5" stroke-width="1.5" stroke-linecap="round" stroke-linejoin="round"/>
<path d="M1.36906 8.06484C0.566655 8.96084 0.549855 10.3128 1.28586 11.2649C2.71548 13.1207 4.37885 14.7841 6.23469 16.2137C7.18669 16.9497 8.5387 16.9329 9.43471 16.1305C11.8568 13.9639 14.1327 11.6394 16.2475 9.17204C16.4611 8.92664 16.5925 8.62064 16.6235 8.29684C16.7548 6.86003 17.026 2.7208 15.9019 1.5976C14.7779 0.474391 10.6395 0.744793 9.20271 0.876794C8.8789 0.907816 8.5729 1.03928 8.3275 1.2528C5.86019 3.36738 3.53562 5.64304 1.36906 8.06484Z" stroke="#0C67B5" stroke-width="1.5"/>
<path d="M10.1803 9.04324C10.1979 8.72244 10.2875 8.13523 9.79948 7.68883C9.61328 7.52704 9.39645 7.40434 9.16188 7.32803C8.15627 6.97363 6.92187 8.15923 7.79547 9.24484C8.26507 9.82884 8.62748 10.008 8.59228 10.6704C8.56828 11.1361 8.11067 11.6233 7.50747 11.8089C6.98347 11.9705 6.40506 11.7569 6.03946 11.3481C5.59226 10.8488 5.63786 10.3784 5.63386 10.1736M9.80028 7.68963L10.3499 7.13843M6.07786 11.4105L5.55546 11.9329" stroke="#0C67B5" stroke-width="1.5" stroke-linecap="round" stroke-linejoin="round"/>
</svg>
