<svg width="120" height="20" viewBox="0 0 120 20" fill="none" xmlns="http://www.w3.org/2000/svg">
<g clip-path="url(#clip0_57_281)">
<path d="M119.671 8.59723C119.697 8.55653 119.726 8.50768 119.766 8.43604L119.998 8.04362L118.513 7.2702C118.386 7.18227 118.265 7.08783 118.153 6.97874L117.558 6.03597L116.386 5.15182L115.391 3.80687C115.378 3.78896 115.365 3.77105 115.352 3.75477L115.191 3.53658C115.191 3.53658 114.894 3.21907 114.021 2.68174C113.924 2.62149 113.829 2.56451 113.737 2.5124C112.7 1.90994 111.943 1.76828 111.943 1.76828C111.943 1.76828 112.335 2.33166 112.471 2.52054C112.473 2.5238 112.474 2.52706 112.476 2.53031C112.445 2.52054 112.414 2.5124 112.385 2.50426C111.728 2.2991 111.218 2.27467 111.218 2.27467L112.469 4.1944L112.713 4.10485L115.545 5.79824L114.168 5.23975C113.732 5.44002 113.236 5.63379 112.732 5.80476L104.301 0.675716C102.779 -0.250768 100.866 -0.224716 99.3678 0.740847L97.1061 2.19977C96.1892 2.79246 95.7098 3.20441 94.1181 3.98761C92.3811 3.70429 91.8145 3.59357 90.6667 3.32816L77.2584 0.504748L90.3939 7.83195C93.8291 9.65398 95.261 9.75656 95.7162 9.63444C96.4443 9.43905 99.145 8.57607 99.6486 8.41487L99.2661 7.32719L103.182 14.827L112.405 19.9984L106.103 13.3811L103.888 5.85035L106.574 11.5542L111.425 13.2622L108.839 10.8166L111.812 9.46347C112.915 9.13293 113.057 9.08734 113.754 8.89521H113.758L113.239 7.06178L114.09 8.8545L115.002 9.03849L116.161 9.27459L117.931 9.3153C118.094 9.37717 118.358 9.46673 118.531 9.48627C118.705 9.50743 118.846 9.42602 118.996 9.33972C119.277 9.1769 119.316 8.93591 119.516 8.76332C119.587 8.70307 119.624 8.66399 119.661 8.607L119.669 8.59398L119.671 8.59723ZM116.778 6.88267C116.523 6.83545 116.324 6.38116 116.195 6.1646C116.81 6.50328 117.235 6.73612 117.798 7.06829C117.614 7.03573 117.104 6.94129 116.778 6.88267Z" fill="white"/>
<path d="M14.2525 7.84338C14.4882 7.60565 14.7627 7.48679 15.0984 7.48842C16.0412 7.4933 16.9839 7.49005 17.9267 7.49005C17.9654 7.49005 18.0058 7.49005 18.0558 7.49005C18.0445 7.52913 18.0381 7.55355 18.0284 7.57635C16.7289 10.6603 15.4278 13.7442 14.1315 16.8298C14.0879 16.9356 14.0346 16.9649 13.9248 16.9633C13.1371 16.9584 12.3477 16.96 11.5599 16.96C11.5099 16.96 11.4598 16.96 11.4098 16.9552C11.1305 16.9324 11.0127 16.7402 11.1208 16.4813C11.2726 16.1166 11.4275 15.7535 11.5809 15.3904C11.8892 14.6593 12.1976 13.9298 12.5043 13.1988C12.514 13.1743 12.522 13.1499 12.5188 13.1157C12.4962 13.1369 12.472 13.1564 12.4494 13.1792C11.3081 14.3239 10.1668 15.4686 9.0287 16.6165C8.79786 16.8493 8.52827 16.9666 8.20057 16.9633C7.41925 16.9584 6.63793 16.9633 5.855 16.9617C5.79205 16.9617 5.72747 16.9617 5.66452 16.9519C5.46596 16.9242 5.35457 16.807 5.3239 16.61C5.1657 15.5858 5.00589 14.5616 4.84607 13.5358C4.79603 13.2085 4.74598 12.8829 4.69594 12.5556C4.68626 12.5556 4.67657 12.554 4.66688 12.5523C4.65074 12.6191 4.63298 12.6858 4.61684 12.7526C4.46833 13.3355 4.33273 13.9217 4.16807 14.4981C4.08735 14.7782 3.95175 15.0436 3.83875 15.3139C3.69669 15.6525 3.54979 15.9896 3.41096 16.3315C3.24954 16.7337 2.94443 16.947 2.52795 16.9552C1.70304 16.9731 0.878141 16.9617 0.0516237 16.9617C0.0387093 16.9617 0.025795 16.9568 -0.00164795 16.9519C0.0128807 16.9079 0.025795 16.8672 0.0419379 16.8298C0.93787 14.7033 1.83542 12.5768 2.73135 10.4502C2.87179 10.1181 3.01385 9.7859 3.15106 9.45211C3.17528 9.39512 3.18819 9.32836 3.18819 9.26649C3.19465 8.71613 3.19788 8.16415 3.20111 7.6138C3.20111 7.57797 3.20111 7.54052 3.20111 7.49005H3.31895C4.6572 7.49005 5.99545 7.49005 7.33531 7.48842C7.41925 7.48842 7.45315 7.50796 7.46284 7.59589C7.56615 8.50609 7.6727 9.41466 7.77762 10.3249C7.8761 11.1797 8.09725 13.0831 8.19411 13.9396L14.2525 7.84338Z" fill="white"/>
<path d="M23.3055 17.0008C22.2481 17.0008 21.1924 17.0008 20.135 17.0008C19.8041 17.0008 19.4796 16.9698 19.1648 16.8591C18.1462 16.4993 17.7426 15.6249 18.1414 14.6105C18.3383 14.1106 18.5546 13.6205 18.7629 13.1255C19.1842 12.1241 19.6152 11.1276 20.0253 10.1213C20.3207 9.39512 20.8098 8.83825 21.4378 8.39374C22.0722 7.94271 22.7744 7.64799 23.5444 7.53727C23.7462 7.50796 23.9528 7.49819 24.1562 7.49819C26.2564 7.49493 28.3566 7.49819 30.4568 7.49493C30.8491 7.49493 31.2317 7.54215 31.5981 7.69358C32.4085 8.02738 32.7895 8.79429 32.5376 9.64913C32.4311 10.0106 32.2697 10.3542 32.1228 10.7026C31.5884 11.9759 31.0525 13.246 30.5149 14.5177C30.2744 15.0892 29.8805 15.5418 29.4043 15.9228C28.7134 16.4765 27.9304 16.8298 27.0555 16.9601C26.8537 16.9894 26.6471 16.9975 26.4437 16.9991C25.3976 17.0024 24.3499 17.0008 23.3039 17.0008H23.3055ZM23.249 10.4779C23.2377 10.5105 23.2296 10.5317 23.2216 10.5528C22.8422 11.4516 22.4644 12.3488 22.0851 13.2476C21.9527 13.5619 21.8187 13.8745 21.6896 14.1904C21.6169 14.3678 21.6912 14.49 21.8801 14.5144C21.9269 14.5209 21.9737 14.5193 22.0205 14.5193C23.3765 14.5193 24.7309 14.5193 26.0869 14.5193C26.3048 14.5193 26.5228 14.5242 26.7407 14.5193C26.9877 14.5128 27.1846 14.4118 27.2863 14.1741C27.8336 12.8812 28.3776 11.5884 28.9216 10.2939C29.0088 10.0871 28.9232 9.95687 28.7021 9.94548C28.6746 9.94548 28.6488 9.94548 28.6214 9.94548C26.568 9.94548 24.5162 9.94548 22.4628 9.94548H22.3579C22.3563 9.95525 22.3531 9.96339 22.3514 9.97316C22.6501 10.1409 22.9487 10.3102 23.2506 10.4795L23.249 10.4779Z" fill="white"/>
<path d="M38.0699 16.9991C36.9625 16.9991 35.8551 16.9991 34.7493 16.9991C34.399 16.9991 34.0616 16.9291 33.7403 16.7891C32.9606 16.4504 32.5926 15.7063 32.825 14.8808C32.9219 14.5388 33.072 14.2099 33.2108 13.881C33.7419 12.6109 34.2827 11.3458 34.8122 10.0741C35.106 9.36744 35.5919 8.82686 36.2037 8.39374C36.8365 7.94596 37.5339 7.65125 38.3007 7.5389C38.5057 7.50959 38.7156 7.49819 38.9222 7.49819C41.0224 7.49493 43.1226 7.49819 45.2228 7.49493C45.6151 7.49493 45.9976 7.54215 46.3641 7.69358C47.2035 8.03878 47.5748 8.85291 47.2794 9.73706C47.1664 10.0757 47.0163 10.4014 46.8774 10.7319C46.348 11.9922 45.8168 13.2509 45.2857 14.5095C45.0436 15.0843 44.6497 15.5402 44.1703 15.9228C43.481 16.4732 42.7029 16.8282 41.8312 16.9584C41.6261 16.9894 41.4163 16.9975 41.2097 16.9991C40.1636 17.0024 39.1159 17.0008 38.0699 17.0008V16.9991ZM37.119 9.94873C37.119 9.94873 37.1158 9.96176 37.1142 9.96827C37.1449 9.98618 37.1755 10.0041 37.2062 10.022C37.4467 10.1572 37.6857 10.2939 37.9278 10.4242C38.0053 10.4649 38.0134 10.5007 37.9795 10.5805C37.542 11.6112 37.1061 12.6435 36.6719 13.6758C36.5992 13.8468 36.5266 14.0178 36.4572 14.1887C36.3862 14.3662 36.4572 14.4883 36.6444 14.516C36.6703 14.5193 36.6977 14.5209 36.7252 14.5209C38.3185 14.5209 39.9118 14.5225 41.5051 14.5209C41.7747 14.5209 41.9668 14.3923 42.0749 14.1334C42.3607 13.4446 42.6528 12.7591 42.9418 12.072C43.1904 11.4809 43.4406 10.8915 43.6876 10.3004C43.7764 10.0888 43.6908 9.9585 43.4632 9.9471C43.4438 9.9471 43.4229 9.9471 43.4035 9.9471C41.3404 9.9471 39.2774 9.9471 37.2143 9.9471C37.182 9.9471 37.1513 9.95036 37.119 9.95199V9.94873Z" fill="white"/>
<path d="M61.0267 16.8949C61.0396 16.8639 61.0509 16.8363 61.0622 16.8086C62.0921 14.3645 63.122 11.9205 64.1503 9.47649C64.1859 9.39182 64.2036 9.29575 64.2052 9.20457C64.2133 8.67376 64.2133 8.14294 64.2165 7.61213C64.2165 7.5763 64.2165 7.54048 64.2165 7.49163C63.4869 7.49163 62.7572 7.49326 62.0292 7.49001C61.6934 7.48838 61.419 7.60724 61.1833 7.84497L55.1248 13.9412C55.028 13.0847 54.8068 11.1829 54.7083 10.3264C54.6034 9.41625 54.4953 8.50767 54.3936 7.59747C54.3839 7.50955 54.35 7.49001 54.266 7.49001C52.9278 7.49326 51.5895 7.49163 50.2497 7.49163H50.1318C50.1318 7.54211 50.1318 7.57793 50.1318 7.61538C50.1286 8.16574 50.1254 8.71772 50.1189 9.26807C50.1189 9.32995 50.1044 9.39671 50.0818 9.4537C49.9446 9.78749 49.8025 10.1197 49.6621 10.4518C48.7661 12.5783 47.8686 14.7049 46.9727 16.8314C46.9565 16.8705 46.9452 16.9095 46.9291 16.9535C46.9565 16.9584 46.9694 16.9633 46.9824 16.9633C47.8073 16.9633 48.6338 16.9747 49.4587 16.9567C49.8735 16.9486 50.1786 16.7337 50.3417 16.3331C50.4789 15.9928 50.6274 15.6558 50.7695 15.3155C50.8825 15.0452 51.0181 14.7798 51.0988 14.4997C51.2651 13.9233 51.4007 13.3371 51.5476 12.7542C51.5653 12.6874 51.5815 12.6207 51.5976 12.5539C51.6073 12.5539 51.617 12.5555 51.6267 12.5572C51.6767 12.8845 51.7268 13.2101 51.7768 13.5374C51.935 14.5616 52.0948 15.5857 52.2546 16.6116C52.2853 16.8086 52.3967 16.9258 52.5952 16.9535C52.6582 16.9616 52.7228 16.9633 52.7857 16.9633C53.567 16.9633 54.3484 16.96 55.1313 16.9649C55.4606 16.9665 55.7286 16.8509 55.9594 16.6181C57.0975 15.4701 58.2388 14.3271 59.3801 13.1808C59.4027 13.158 59.4269 13.1385 59.4495 13.1173C59.4528 13.1515 59.4463 13.1775 59.435 13.2003C59.1267 13.9314 58.82 14.6609 58.5116 15.392C58.3583 15.7551 58.2049 16.1198 58.0515 16.4829C57.9434 16.7418 58.0612 16.934 58.3405 16.9567C58.3905 16.9616 58.4406 16.9616 58.4906 16.9616C59.2784 16.9616 60.0678 16.96 60.8556 16.9649C60.9379 16.9649 60.9879 16.9486 61.0283 16.8949H61.0267Z" fill="white"/>
<path d="M90.2309 16.5301C90.0001 15.2161 89.7676 13.9021 89.5351 12.5881C89.2413 10.9224 88.9475 9.25504 88.6586 7.58769C88.6424 7.49325 88.6102 7.47046 88.5181 7.47046C87.1363 7.47534 85.7545 7.47697 84.3726 7.4786C84.3371 7.4786 84.3016 7.48186 84.258 7.48348C84.258 7.52908 84.258 7.56653 84.258 7.60235C84.2564 7.97034 84.258 8.33995 84.25 8.70794C84.25 8.75842 84.2241 8.82192 84.1902 8.85774C83.1813 9.88681 82.1707 10.9142 81.1586 11.9401C79.5314 13.5895 77.9009 15.2357 76.2721 16.8835C76.2527 16.903 76.2366 16.9258 76.2059 16.9616C76.2592 16.9616 76.2899 16.9616 76.3189 16.9616C77.4392 16.9551 78.5596 16.9405 79.6799 16.9437C80.0383 16.9437 80.2869 16.7695 80.5161 16.5139L81.0795 15.9505L81.1231 15.9065L85.5414 11.4109C85.6156 11.336 85.6899 11.2594 85.7658 11.1829C85.7948 11.3636 85.8239 11.5444 85.8529 11.7235L85.8562 11.7267L85.8529 11.73C85.9579 12.3732 86.0596 13.0066 86.1629 13.6465H84.2047L81.9835 15.9081H86.3857C86.4841 15.9081 86.5196 15.9342 86.5309 16.0335C86.5552 16.2419 86.5891 16.4487 86.6213 16.6555C86.6504 16.8395 86.7489 16.9274 86.9313 16.9388C86.962 16.9405 86.991 16.9405 87.0217 16.9405C88.0742 16.947 89.1283 16.9551 90.1809 16.9616C90.2164 16.9616 90.2519 16.9616 90.2987 16.9616C90.2729 16.8086 90.2503 16.6685 90.2261 16.5301H90.2309Z" fill="white"/>
<path d="M77.126 7.66911C76.7579 7.51931 76.3753 7.47046 75.9831 7.47046C72.9337 7.47046 69.8843 7.47046 66.8365 7.47046H66.7025C66.7025 7.52908 66.7025 7.56978 66.7025 7.60886C66.6993 8.13968 66.6993 8.67049 66.6912 9.20131C66.6912 9.29249 66.6718 9.39019 66.6363 9.47323C65.608 11.9189 64.5781 14.3613 63.5482 16.8053C63.5288 16.8509 63.511 16.8965 63.4868 16.9551H63.6434C66.5314 16.9551 69.4193 16.9502 72.3073 16.9584C72.9595 16.96 73.581 16.8411 74.1734 16.5741C74.866 16.2631 75.4729 15.8349 75.9152 15.208C76.335 14.612 76.5739 13.9265 76.7902 13.2362C76.8774 12.9561 76.8402 12.6744 76.703 12.4106C76.6385 12.2852 76.5771 12.1582 76.5109 12.0263C76.5481 12.0003 76.5852 11.9726 76.6223 11.9449C76.8887 11.7528 77.134 11.5379 77.3213 11.2643C77.6797 10.7384 77.925 10.1538 78.0865 9.54324C78.3044 8.71771 77.9057 7.98499 77.1244 7.66748L77.126 7.66911ZM74.4123 10.3851C74.3219 10.569 74.2477 10.7628 74.1718 10.9533C74.146 11.0168 74.1137 11.0461 74.0394 11.0461C72.6286 11.0445 71.6551 11.0445 70.2442 11.0445L69.2805 13.2997C70.6026 13.2997 71.4889 13.2997 72.811 13.2997C72.8981 13.2997 72.9869 13.3045 73.0693 13.3257C73.2565 13.3762 73.3469 13.5455 73.2775 13.7279C73.1855 13.9705 73.0806 14.2082 72.974 14.446C72.9611 14.4753 72.8998 14.4948 72.861 14.4948H67.8583L69.5856 10.4323C69.5969 10.3834 69.5792 10.3541 69.5178 10.3216C69.2741 10.1929 69.0351 10.0545 68.7962 9.91937C68.7656 9.90146 68.7349 9.88355 68.7042 9.86564C68.7042 9.85913 68.7074 9.85261 68.7091 9.8461C68.7413 9.84447 68.772 9.84121 68.8043 9.84121C69.5824 9.84121 70.3621 9.84121 71.1402 9.84121H74.0185C74.0378 9.84121 74.0588 9.84121 74.0782 9.84121C74.3914 9.85261 74.5689 10.0594 74.4123 10.3818V10.3851Z" fill="white"/>
</g>
<defs>
<clipPath id="clip0_57_281">
<rect width="120" height="20" fill="white"/>
</clipPath>
</defs>
</svg>
